<svg width="80" height="80" viewBox="0 0 80 80" fill="none" xmlns="http://www.w3.org/2000/svg">
<rect width="80" height="80" rx="8" fill="#FAEBD7"/>
<path d="M31.2305 25.8164C33.6393 25.8164 35.5013 26.3307 36.8164 27.3594C38.1315 28.375 38.7891 29.8073 38.7891 31.6562C38.7891 35.3411 36.7513 37.6523 32.6758 38.5898C33.2747 38.8372 33.763 39.2865 34.1406 39.9375C34.4922 40.5495 34.8698 41.4154 35.2734 42.5352C35.5599 43.2643 35.7096 43.6549 35.7227 43.707C35.9049 44.1367 36.1068 44.4622 36.3281 44.6836C36.5495 44.8919 36.8229 44.9961 37.1484 44.9961H37.5195C37.8711 44.9961 38.125 45.0677 38.2812 45.2109C38.4375 45.3542 38.5156 45.6146 38.5156 45.9922C38.5156 46.2526 38.4766 46.5911 38.3984 47.0078C38.3073 47.5547 38.1901 47.9714 38.0469 48.2578C37.9167 48.5443 37.7539 48.7396 37.5586 48.8438C37.3763 48.9479 37.1289 49 36.8164 49H35.1172C34.1016 49 33.3138 48.7917 32.7539 48.375C32.207 47.9583 31.7383 47.2617 31.3477 46.2852C31.1784 45.8815 30.9766 45.25 30.7422 44.3906C30.5469 43.7266 30.3776 43.1927 30.2344 42.7891C30.1042 42.3724 29.9284 41.9688 29.707 41.5781C29.4076 41.0312 29.0299 40.6341 28.5742 40.3867C28.1185 40.1263 27.5456 39.9961 26.8555 39.9961H25.6055L24.7266 44.9961H26.6211C26.9596 44.9961 27.207 45.0677 27.3633 45.2109C27.5195 45.3411 27.5977 45.5951 27.5977 45.9727C27.5977 46.2331 27.5586 46.5781 27.4805 47.0078C27.3893 47.5547 27.2786 47.9714 27.1484 48.2578C27.0182 48.5443 26.8555 48.7396 26.6602 48.8438C26.4779 48.9479 26.2305 49 25.918 49H17.0508C16.6992 49 16.4453 48.9284 16.2891 48.7852C16.1328 48.6419 16.0547 48.3815 16.0547 48.0039C16.0547 47.6784 16.0872 47.3464 16.1523 47.0078C16.2956 46.2135 16.4844 45.6797 16.7188 45.4062C16.9531 45.1328 17.2982 44.9961 17.7539 44.9961H19.8438L22.5195 29.8203H20.4297C20.0781 29.8203 19.8242 29.7552 19.668 29.625C19.5117 29.4818 19.4336 29.2214 19.4336 28.8438C19.4336 28.5703 19.4727 28.2318 19.5508 27.8281C19.6419 27.2812 19.7526 26.8646 19.8828 26.5781C20.026 26.2917 20.1888 26.0964 20.3711 25.9922C20.5664 25.875 20.8203 25.8164 21.1328 25.8164H31.2305ZM26.3477 35.7969H29.2578C30.9245 35.7969 32.1159 35.4193 32.832 34.6641C33.1055 34.3646 33.3203 34 33.4766 33.5703C33.6458 33.1276 33.7305 32.6914 33.7305 32.2617C33.7305 31.5065 33.444 30.9466 32.8711 30.582C32.3112 30.2044 31.4453 30.0156 30.2734 30.0156H27.3633L26.3477 35.7969ZM58.5352 43.9219C58.6914 43.8698 58.8542 43.8438 59.0234 43.8438C59.3229 43.8438 59.5573 43.974 59.7266 44.2344C59.8958 44.4818 60.0456 44.9245 60.1758 45.5625C60.2539 45.9661 60.293 46.3177 60.293 46.6172C60.293 47.0208 60.2083 47.3333 60.0391 47.5547C59.8698 47.763 59.5964 47.9258 59.2188 48.043C57.8125 48.4857 56.3672 48.8242 54.8828 49.0586C53.4115 49.306 51.9922 49.4297 50.625 49.4297C48.9714 49.4297 47.5456 49.0977 46.3477 48.4336C45.1497 47.7565 44.2383 46.8255 43.6133 45.6406C42.9883 44.4557 42.6758 43.1081 42.6758 41.5977C42.6758 39.5664 43.125 37.7109 44.0234 36.0312C44.9219 34.3516 46.224 33.0169 47.9297 32.0273C49.6354 31.0247 51.6406 30.5234 53.9453 30.5234C55.4557 30.5234 56.7839 30.7839 57.9297 31.3047C59.0755 31.8125 59.9609 32.5286 60.5859 33.4531C61.224 34.3776 61.543 35.4323 61.543 36.6172C61.543 38.1016 61.1328 39.2799 60.3125 40.1523C59.5052 41.0117 58.2812 41.526 56.6406 41.6953L47.793 42.5742C47.9883 43.3685 48.3919 43.974 49.0039 44.3906C49.6159 44.7943 50.4167 44.9961 51.4062 44.9961C53.6719 44.9961 56.0482 44.638 58.5352 43.9219ZM53.4375 34.957C50.625 34.957 48.8281 36.2786 48.0469 38.9219L54.8633 38.2383C55.4102 38.1862 55.8008 38.0299 56.0352 37.7695C56.2695 37.5091 56.3867 37.1901 56.3867 36.8125C56.3867 36.2917 56.1393 35.8555 55.6445 35.5039C55.1628 35.1393 54.4271 34.957 53.4375 34.957Z" fill="#444444"/>
</svg>
